<svg width="64" height="63" viewBox="0 0 64 63" fill="none" xmlns="http://www.w3.org/2000/svg">
<g filter="url(#filter0_d)">
<path d="M31.9976 23.2869C23.845 23.2869 17.2358 29.8955 17.2358 38.0481C17.2358 46.2007 23.845 52.8098 31.9976 52.8098C40.1504 52.8098 46.7595 46.2007 46.7595 38.0481C46.7595 29.8955 40.1503 23.2869 31.9976 23.2869ZM37.9863 45.0139C37.7476 45.0139 37.5845 44.9311 37.3615 44.7952C35.2218 43.5009 32.5544 42.8208 29.7232 42.8208C28.1437 42.8208 26.554 43.0231 25.0671 43.3325C24.8254 43.3851 24.5212 43.4786 24.3395 43.4786C23.7789 43.4786 23.4051 43.033 23.4051 42.5509C23.4051 41.9303 23.7629 41.6219 24.2081 41.5368C26.0313 41.1213 27.8471 40.884 29.7332 40.884C32.9633 40.884 35.8422 41.6252 38.3196 43.1098C38.6882 43.3252 38.9043 43.5448 38.9043 44.0909C38.9044 44.6231 38.4718 45.0139 37.9863 45.0139ZM39.5948 41.1068C39.2745 41.1068 39.0728 40.9775 38.8553 40.8509C36.454 39.4259 33.1259 38.4792 29.4815 38.4792C27.6122 38.4792 25.999 38.7406 24.6635 39.0965C24.3757 39.1756 24.2143 39.2607 23.9452 39.2607C23.3103 39.2607 22.7921 38.7434 22.7921 38.1035C22.7921 37.4758 23.0963 37.0436 23.7102 36.8706C25.3698 36.4149 27.0641 36.0633 29.5305 36.0633C33.3946 36.0633 37.1325 37.0257 40.0711 38.7843C40.5638 39.0671 40.7453 39.4254 40.7453 39.9511C40.7454 40.5904 40.2364 41.1068 39.5948 41.1068ZM41.4262 36.5629C41.1257 36.5629 40.9473 36.4898 40.6656 36.3356C37.9937 34.7336 33.8473 33.8512 29.8372 33.8512C27.8355 33.8512 25.8024 34.0548 23.9401 34.56C23.7256 34.614 23.4547 34.7215 23.1832 34.7215C22.3958 34.7215 21.7917 34.0986 21.7917 33.3111C21.7917 32.5088 22.2888 32.0585 22.8252 31.9C24.9294 31.2801 27.2782 30.9912 29.8317 30.9912C34.1663 30.9912 38.7267 31.8828 42.0581 33.8394C42.507 34.0937 42.8187 34.4772 42.8187 35.18C42.8187 35.9846 42.1718 36.5629 41.4262 36.5629Z" fill="white"/>
<path d="M59.9998 37.3332H56.2665V27.9999C56.2665 21.564 53.7099 15.3917 49.159 10.8408C44.6081 6.28997 38.4358 3.73332 31.9999 3.73332C25.564 3.73332 19.3917 6.28997 14.8408 10.8408C10.29 15.3917 7.73332 21.564 7.73332 27.9999V37.3332H4V27.9999C4 20.5739 6.94998 13.452 12.201 8.20099C17.452 2.94998 24.5739 0 31.9999 0C39.426 0 46.5479 2.94998 51.7989 8.20099C57.0499 13.452 59.9998 20.5739 59.9998 27.9999V37.3332Z" fill="white"/>
<path d="M15.6293 48.5332H13.3333C12.1076 48.5332 10.894 48.2918 9.76161 47.8228C8.62924 47.3537 7.60034 46.6663 6.73366 45.7996C4.98333 44.0492 4 41.6753 4 39.1999V35.4666C4 32.9913 4.98333 30.6173 6.73366 28.867C8.484 27.1166 10.858 26.1333 13.3333 26.1333H15.6293C16.5107 26.148 17.351 26.5085 17.9691 27.137C18.5871 27.7655 18.9334 28.6118 18.9333 29.4933V45.1733C18.9334 46.0548 18.5871 46.901 17.9691 47.5295C17.351 48.1581 16.5107 48.5185 15.6293 48.5332V48.5332ZM13.3333 29.8666C11.8481 29.8666 10.4237 30.4566 9.37352 31.5068C8.32332 32.557 7.73332 33.9814 7.73332 35.4666V39.1999C7.73332 40.6851 8.32332 42.1095 9.37352 43.1597C10.4237 44.2099 11.8481 44.7999 13.3333 44.7999H15.2V29.8666H13.3333Z" fill="white"/>
<path d="M50.6669 48.5332H48.4269C47.5358 48.5332 46.6811 48.1792 46.051 47.5491C45.4209 46.919 45.0669 46.0644 45.0669 45.1733V29.4933C45.0669 28.6022 45.4209 27.7475 46.051 27.1174C46.6811 26.4873 47.5358 26.1333 48.4269 26.1333H50.6669C53.1422 26.1333 55.5162 27.1166 57.2665 28.867C59.0169 30.6173 60.0002 32.9913 60.0002 35.4666V39.1999C60.0002 41.6753 59.0169 44.0492 57.2665 45.7996C55.5162 47.5499 53.1422 48.5332 50.6669 48.5332V48.5332ZM48.8002 44.7999H50.6669C52.1521 44.7999 53.5765 44.2099 54.6267 43.1597C55.6769 42.1095 56.2669 40.6851 56.2669 39.1999V35.4666C56.2669 33.9814 55.6769 32.557 54.6267 31.5068C53.5765 30.4566 52.1521 29.8666 50.6669 29.8666H48.8002V44.7999Z" fill="white"/>
<path d="M13.3333 27.9999H15.6293C16.0254 27.9999 16.4052 28.1572 16.6853 28.4373C16.9653 28.7173 17.1227 29.0972 17.1227 29.4932V45.1732C17.1227 45.5692 16.9653 45.9491 16.6853 46.2291C16.4052 46.5092 16.0254 46.6665 15.6293 46.6665H13.3333C11.3531 46.6665 9.4539 45.8798 8.05363 44.4796C6.65336 43.0793 5.8667 41.1801 5.8667 39.1998V35.4665C5.8667 33.4862 6.65336 31.5871 8.05363 30.1868C9.4539 28.7865 11.3531 27.9999 13.3333 27.9999V27.9999Z" fill="white"/>
<path d="M50.6662 46.6665H48.4262C48.0301 46.6665 47.6503 46.5092 47.3702 46.2291C47.0902 45.9491 46.9328 45.5692 46.9328 45.1732V29.4932C46.9328 29.0972 47.0902 28.7173 47.3702 28.4373C47.6503 28.1572 48.0301 27.9999 48.4262 27.9999H50.6662C52.6464 27.9999 54.5456 28.7866 55.9459 30.1868C57.3461 31.5871 58.1328 33.4863 58.1328 35.4665V39.1999C58.1328 41.1801 57.3461 43.0793 55.9459 44.4796C54.5456 45.8798 52.6464 46.6665 50.6662 46.6665V46.6665Z" fill="white"/>
</g>
<defs>
<filter id="filter0_d" x="0" y="0" width="64.0002" height="63" filterUnits="userSpaceOnUse" color-interpolation-filters="sRGB">
<feFlood flood-opacity="0" result="BackgroundImageFix"/>
<feColorMatrix in="SourceAlpha" type="matrix" values="0 0 0 0 0 0 0 0 0 0 0 0 0 0 0 0 0 0 127 0"/>
<feOffset dy="4"/>
<feGaussianBlur stdDeviation="2"/>
<feColorMatrix type="matrix" values="0 0 0 0 0 0 0 0 0 0 0 0 0 0 0 0 0 0 0.17 0"/>
<feBlend mode="normal" in2="BackgroundImageFix" result="effect1_dropShadow"/>
<feBlend mode="normal" in="SourceGraphic" in2="effect1_dropShadow" result="shape"/>
</filter>
</defs>
</svg>
