<svg width="193" height="115" viewBox="0 0 193 115" fill="none" xmlns="http://www.w3.org/2000/svg">
<path d="M0.819863 76.76C0.819863 90.76 15.8699 92.65 15.8699 102.73C15.8699 106.23 14.3299 107.49 11.8799 107.49C9.42986 107.49 7.88986 106.23 7.88986 102.73V99.23H0.609863V102.24C0.609863 110.08 4.52986 114.56 12.0899 114.56C19.6499 114.56 23.5699 110.08 23.5699 102.24C23.5699 88.24 8.51986 86.35 8.51986 76.27C8.51986 72.77 9.91986 71.44 12.3699 71.44C14.8199 71.44 16.2199 72.77 16.2199 76.27V78.3H23.4999V76.76C23.4999 68.92 19.6499 64.44 12.1599 64.44C4.66986 64.44 0.819863 68.92 0.819863 76.76Z" fill="white"/>
<path d="M42.1215 65H30.7815V114H38.4815V95.59H42.1215C49.8215 95.59 53.6015 91.32 53.6015 83.48V77.11C53.6015 69.27 49.8215 65 42.1215 65ZM42.1215 72C44.5715 72 45.9015 73.12 45.9015 76.62V83.97C45.9015 87.47 44.5715 88.59 42.1215 88.59H38.4815V72H42.1215Z" fill="white"/>
<path d="M67.0382 76.27C67.0382 72.77 68.5782 71.44 71.0282 71.44C73.4782 71.44 75.0182 72.77 75.0182 76.27V102.73C75.0182 106.23 73.4782 107.56 71.0282 107.56C68.5782 107.56 67.0382 106.23 67.0382 102.73V76.27ZM59.3382 102.24C59.3382 110.08 63.4682 114.56 71.0282 114.56C78.5882 114.56 82.7182 110.08 82.7182 102.24V76.76C82.7182 68.92 78.5882 64.44 71.0282 64.44C63.4682 64.44 59.3382 68.92 59.3382 76.76V102.24Z" fill="white"/>
<path d="M88.2821 72H96.3321V114H104.032V72H112.082V65H88.2821V72Z" fill="white"/>
<path d="M115.667 93H129.667V86H115.667V93Z" fill="white"/>
<path d="M144.755 76.27C144.755 72.77 146.295 71.44 148.745 71.44C151.195 71.44 152.735 72.77 152.735 76.27V102.73C152.735 106.23 151.195 107.56 148.745 107.56C146.295 107.56 144.755 106.23 144.755 102.73V76.27ZM137.055 102.24C137.055 110.08 141.185 114.56 148.745 114.56C156.305 114.56 160.435 110.08 160.435 102.24V76.76C160.435 68.92 156.305 64.44 148.745 64.44C141.185 64.44 137.055 68.92 137.055 76.76V102.24Z" fill="white"/>
<path d="M184.689 114H192.599V65H185.739V94.33L177.829 65H168.169V114H175.099V78.51L184.689 114Z" fill="white"/>
<path d="M96.9975 23.2869C88.8449 23.2869 82.2358 29.8955 82.2358 38.0481C82.2358 46.2007 88.8449 52.8098 96.9975 52.8098C105.15 52.8098 111.759 46.2007 111.759 38.0481C111.759 29.8955 105.15 23.2869 96.9975 23.2869ZM102.986 45.0139C102.748 45.0139 102.584 44.9311 102.361 44.7952C100.222 43.5009 97.5544 42.8208 94.7232 42.8208C93.1437 42.8208 91.554 43.0231 90.0671 43.3325C89.8254 43.3851 89.5211 43.4786 89.3394 43.4786C88.7789 43.4786 88.405 43.0329 88.405 42.5509C88.405 41.9303 88.7628 41.6219 89.208 41.5367C91.0313 41.1213 92.8471 40.884 94.7331 40.884C97.9632 40.884 100.842 41.6252 103.32 43.1098C103.688 43.3252 103.904 43.5448 103.904 44.0909C103.904 44.6231 103.472 45.0139 102.986 45.0139ZM104.595 41.1068C104.274 41.1068 104.073 40.9775 103.855 40.8509C101.454 39.4259 98.1259 38.4791 94.4814 38.4791C92.6121 38.4791 90.9989 38.7406 89.6634 39.0965C89.3757 39.1756 89.2142 39.2607 88.9451 39.2607C88.3103 39.2607 87.792 38.7434 87.792 38.1035C87.792 37.4758 88.0963 37.0436 88.7102 36.8705C90.3697 36.4149 92.0641 36.0633 94.5305 36.0633C98.3945 36.0633 102.132 37.0257 105.071 38.7843C105.564 39.0671 105.745 39.4254 105.745 39.9511C105.745 40.5904 105.236 41.1068 104.595 41.1068ZM106.426 36.5629C106.126 36.5629 105.947 36.4898 105.665 36.3356C102.994 34.7336 98.8473 33.8512 94.8371 33.8512C92.8355 33.8512 90.8024 34.0548 88.9401 34.56C88.7256 34.614 88.4546 34.7215 88.1831 34.7215C87.3957 34.7215 86.7916 34.0985 86.7916 33.3111C86.7916 32.5088 87.2888 32.0585 87.8251 31.9C89.9294 31.2801 92.2781 30.9912 94.8316 30.9912C99.1662 30.9912 103.727 31.8828 107.058 33.8394C107.507 34.0937 107.819 34.4772 107.819 35.18C107.819 35.9846 107.172 36.5629 106.426 36.5629Z" fill="white"/>
<path d="M125 37.3332H121.266V27.9999C121.266 21.564 118.71 15.3917 114.159 10.8408C109.608 6.28997 103.436 3.73332 96.9998 3.73332C90.5639 3.73332 84.3916 6.28997 79.8407 10.8408C75.2898 15.3917 72.7332 21.564 72.7332 27.9999V37.3332H68.9999V27.9999C68.9999 20.5739 71.9498 13.452 77.2009 8.20099C82.4519 2.94998 89.5737 0 96.9998 0C104.426 0 111.548 2.94998 116.799 8.20099C122.05 13.452 125 20.5739 125 27.9999V37.3332Z" fill="white"/>
<path d="M80.6292 48.5332H78.3332C77.1075 48.5332 75.8938 48.2918 74.7615 47.8227C73.6291 47.3537 72.6002 46.6662 71.7335 45.7995C69.9832 44.0492 68.9999 41.6752 68.9999 39.1999V35.4666C68.9999 32.9912 69.9832 30.6173 71.7335 28.8669C73.4839 27.1166 75.8578 26.1333 78.3332 26.1333H80.6292C81.5105 26.1479 82.3509 26.5084 82.9689 27.137C83.587 27.7655 83.9333 28.6117 83.9332 29.4932V45.1732C83.9333 46.0547 83.587 46.901 82.9689 47.5295C82.3509 48.158 81.5105 48.5185 80.6292 48.5332ZM78.3332 29.8666C76.848 29.8666 75.4236 30.4566 74.3734 31.5068C73.3232 32.557 72.7332 33.9814 72.7332 35.4666V39.1999C72.7332 40.6851 73.3232 42.1095 74.3734 43.1597C75.4236 44.2099 76.848 44.7999 78.3332 44.7999H80.1998V29.8666H78.3332Z" fill="white"/>
<path d="M115.667 48.5332H113.427C112.536 48.5332 111.681 48.1792 111.051 47.5491C110.421 46.919 110.067 46.0643 110.067 45.1732V29.4932C110.067 28.6021 110.421 27.7475 111.051 27.1174C111.681 26.4873 112.536 26.1333 113.427 26.1333H115.667C118.142 26.1333 120.516 27.1166 122.266 28.8669C124.017 30.6173 125 32.9912 125 35.4666V39.1999C125 41.6752 124.017 44.0492 122.266 45.7995C120.516 47.5499 118.142 48.5332 115.667 48.5332ZM113.8 44.7999H115.667C117.152 44.7999 118.576 44.2099 119.627 43.1597C120.677 42.1095 121.267 40.6851 121.267 39.1999V35.4666C121.267 33.9814 120.677 32.557 119.627 31.5068C118.576 30.4566 117.152 29.8666 115.667 29.8666H113.8V44.7999Z" fill="white"/>
<path d="M78.3334 27.9999H80.6294C81.0254 27.9999 81.4053 28.1573 81.6853 28.4373C81.9654 28.7174 82.1227 29.0972 82.1227 29.4933V45.1732C82.1227 45.5693 81.9654 45.9491 81.6853 46.2292C81.4053 46.5092 81.0254 46.6665 80.6294 46.6665H78.3334C76.3531 46.6665 74.4539 45.8799 73.0537 44.4796C71.6534 43.0793 70.8667 41.1802 70.8667 39.1999V35.4666C70.8667 33.4863 71.6534 31.5871 73.0537 30.1869C74.4539 28.7866 76.3531 27.9999 78.3334 27.9999Z" fill="white"/>
<path d="M115.666 46.6665H113.426C113.03 46.6665 112.65 46.5092 112.37 46.2291C112.09 45.9491 111.933 45.5693 111.933 45.1732V29.4932C111.933 29.0972 112.09 28.7174 112.37 28.4373C112.65 28.1572 113.03 27.9999 113.426 27.9999H115.666C117.647 27.9999 119.546 28.7866 120.946 30.1868C122.346 31.5871 123.133 33.4863 123.133 35.4666V39.1999C123.133 41.1802 122.346 43.0793 120.946 44.4796C119.546 45.8799 117.647 46.6665 115.666 46.6665Z" fill="white"/>
</svg>
