<svg width="201" height="59" viewBox="0 0 201 59" fill="none" xmlns="http://www.w3.org/2000/svg">
<g filter="url(#filter0_d)">
<path d="M4.82 12.76C4.82 26.76 19.87 28.65 19.87 38.73C19.87 42.23 18.33 43.49 15.88 43.49C13.43 43.49 11.89 42.23 11.89 38.73V35.23H4.61V38.24C4.61 46.08 8.53 50.56 16.09 50.56C23.65 50.56 27.57 46.08 27.57 38.24C27.57 24.24 12.52 22.35 12.52 12.27C12.52 8.77 13.92 7.44 16.37 7.44C18.82 7.44 20.22 8.77 20.22 12.27V14.3H27.5V12.76C27.5 4.92 23.65 0.44 16.16 0.44C8.67 0.44 4.82 4.92 4.82 12.76ZM46.1216 0.999997H34.7816V50H42.4816V31.59H46.1216C53.8216 31.59 57.6016 27.32 57.6016 19.48V13.11C57.6016 5.27 53.8216 0.999997 46.1216 0.999997ZM46.1216 8C48.5716 8 49.9016 9.12 49.9016 12.62V19.97C49.9016 23.47 48.5716 24.59 46.1216 24.59H42.4816V8H46.1216ZM71.0384 12.27C71.0384 8.77 72.5784 7.44 75.0284 7.44C77.4784 7.44 79.0184 8.77 79.0184 12.27V38.73C79.0184 42.23 77.4784 43.56 75.0284 43.56C72.5784 43.56 71.0384 42.23 71.0384 38.73V12.27ZM63.3384 38.24C63.3384 46.08 67.4684 50.56 75.0284 50.56C82.5884 50.56 86.7184 46.08 86.7184 38.24V12.76C86.7184 4.92 82.5884 0.44 75.0284 0.44C67.4684 0.44 63.3384 4.92 63.3384 12.76V38.24ZM92.2823 8H100.332V50H108.032V8H116.082V0.999997H92.2823V8ZM119.668 29H133.668V22H119.668V29ZM148.755 12.27C148.755 8.77 150.295 7.44 152.745 7.44C155.195 7.44 156.735 8.77 156.735 12.27V38.73C156.735 42.23 155.195 43.56 152.745 43.56C150.295 43.56 148.755 42.23 148.755 38.73V12.27ZM141.055 38.24C141.055 46.08 145.185 50.56 152.745 50.56C160.305 50.56 164.435 46.08 164.435 38.24V12.76C164.435 4.92 160.305 0.44 152.745 0.44C145.185 0.44 141.055 4.92 141.055 12.76V38.24ZM188.689 50H196.599V0.999997H189.739V30.33L181.829 0.999997H172.169V50H179.099V14.51L188.689 50Z" fill="white"/>
</g>
<defs>
<filter id="filter0_d" x="0.609863" y="0.439941" width="199.989" height="58.12" filterUnits="userSpaceOnUse" color-interpolation-filters="sRGB">
<feFlood flood-opacity="0" result="BackgroundImageFix"/>
<feColorMatrix in="SourceAlpha" type="matrix" values="0 0 0 0 0 0 0 0 0 0 0 0 0 0 0 0 0 0 127 0"/>
<feOffset dy="4"/>
<feGaussianBlur stdDeviation="2"/>
<feColorMatrix type="matrix" values="0 0 0 0 0 0 0 0 0 0 0 0 0 0 0 0 0 0 0.14 0"/>
<feBlend mode="normal" in2="BackgroundImageFix" result="effect1_dropShadow"/>
<feBlend mode="normal" in="SourceGraphic" in2="effect1_dropShadow" result="shape"/>
</filter>
</defs>
</svg>
